<?xml version="1.0" encoding="UTF-8" standalone="no"?>
<!-- Created with Inkscape (http://www.inkscape.org/) -->

<svg
   xmlns:dc="http://purl.org/dc/elements/1.1/"
   xmlns:cc="http://creativecommons.org/ns#"
   xmlns:rdf="http://www.w3.org/1999/02/22-rdf-syntax-ns#"
   xmlns:svg="http://www.w3.org/2000/svg"
   xmlns="http://www.w3.org/2000/svg"
   xmlns:xlink="http://www.w3.org/1999/xlink"
   xmlns:sodipodi="http://sodipodi.sourceforge.net/DTD/sodipodi-0.dtd"
   xmlns:inkscape="http://www.inkscape.org/namespaces/inkscape"
   id="svg2"
   version="1.1"
   inkscape:version="0.47pre2 r22153"
   width="2400"
   height="2400"
   sodipodi:docname="Dipartimento_della_Protezione_Civile.svg">
  <metadata
     id="metadata8">
    <rdf:RDF>
      <cc:Work
         rdf:about="">
        <dc:format>image/svg+xml</dc:format>
        <dc:type
           rdf:resource="http://purl.org/dc/dcmitype/StillImage" />
        <dc:title />
      </cc:Work>
    </rdf:RDF>
  </metadata>
  <defs
     id="defs6">
    <linearGradient
       id="linearGradient4495">
      <stop
         id="stop4497"
         offset="0"
         style="stop-color:#2f6414;stop-opacity:1;" />
      <stop
         id="stop4499"
         offset="1"
         style="stop-color:#2f6414;stop-opacity:0;" />
    </linearGradient>
    <linearGradient
       id="linearGradient4489">
      <stop
         id="stop4491"
         offset="0"
         style="stop-color:#ffffff;stop-opacity:1;" />
      <stop
         id="stop4493"
         offset="1"
         style="stop-color:#ffffff;stop-opacity:0;" />
    </linearGradient>
    <linearGradient
       id="linearGradient4453">
      <stop
         style="stop-color:#c60113;stop-opacity:1;"
         offset="0"
         id="stop4455" />
      <stop
         style="stop-color:#c60113;stop-opacity:0;"
         offset="1"
         id="stop4457" />
    </linearGradient>
    <linearGradient
       inkscape:collect="always"
       xlink:href="#linearGradient4453"
       id="linearGradient4591"
       gradientUnits="userSpaceOnUse"
       x1="11063.374"
       y1="4549.5698"
       x2="10949.505"
       y2="4411.8262"
       gradientTransform="translate(-9255.8174,-2982.3367)" />
    <linearGradient
       inkscape:collect="always"
       xlink:href="#linearGradient4495"
       id="linearGradient4593"
       gradientUnits="userSpaceOnUse"
       gradientTransform="matrix(-0.5,-0.8660254,0.8660254,-0.5,2808.9556,12326.36)"
       x1="11063.374"
       y1="4549.5698"
       x2="10949.505"
       y2="4411.8262" />
    <linearGradient
       inkscape:collect="always"
       xlink:href="#linearGradient4489"
       id="linearGradient4595"
       gradientUnits="userSpaceOnUse"
       gradientTransform="matrix(-0.5,0.8660254,-0.8660254,-0.5,10035.111,-5776.8406)"
       x1="11063.374"
       y1="4549.5698"
       x2="10949.505"
       y2="4411.8262" />
  </defs>
  <sodipodi:namedview
     pagecolor="#ffffff"
     bordercolor="#666666"
     borderopacity="1"
     objecttolerance="10"
     gridtolerance="10"
     guidetolerance="10"
     inkscape:pageopacity="0"
     inkscape:pageshadow="2"
     inkscape:window-width="1680"
     inkscape:window-height="1029"
     id="namedview4"
     showgrid="false"
     inkscape:zoom="0.19320508"
     inkscape:cx="2009.6915"
     inkscape:cy="1449.4421"
     inkscape:window-x="-4"
     inkscape:window-y="-4"
     inkscape:window-maximized="1"
     inkscape:current-layer="svg2"
     inkscape:showpageshadow="false" />
  <path
     sodipodi:type="arc"
     style="fill:#ffffff;fill-opacity:1;fill-rule:nonzero;stroke:none"
     id="path2872"
     sodipodi:cx="869.54236"
     sodipodi:cy="1225.0826"
     sodipodi:rx="1133.5106"
     sodipodi:ry="1133.5106"
     d="m 2003.053,1225.0826 a 1133.5106,1133.5106 0 1 1 -2267.02126,0 1133.5106,1133.5106 0 1 1 2267.02126,0 z"
     transform="matrix(1.0410136,0,0,1.0410136,294.79458,-75.327691)" />
  <path
     sodipodi:nodetypes="csc"
     d="m 1827.7296,1538.0052 c -123.48,-85.3955 -285.532,-328.0316 -381.252,-493.8241 -95.721,-165.79261 -224.824,-427.45191 -237.039,-577.08641"
     style="opacity:0.52838428;fill:none;stroke:#aa0000;stroke-width:30;stroke-linecap:butt;stroke-linejoin:miter;stroke-miterlimit:4;stroke-opacity:1;stroke-dasharray:none;stroke-dashoffset:0"
     id="path4503" />
  <path
     sodipodi:nodetypes="csc"
     d="m 1814.3766,1562.0919 c -135.694,-64.2391 -426.849,-83.2622 -618.29,-83.2622 -191.441,0 -482.59588,19.0231 -618.29048,83.2622"
     style="opacity:0.52838428;fill:none;stroke:#aa0000;stroke-width:30;stroke-linecap:butt;stroke-linejoin:miter;stroke-miterlimit:4;stroke-opacity:1;stroke-dasharray:none;stroke-dashoffset:0"
     id="path4505" />
  <path
     id="path4507"
     style="opacity:0.52838428;fill:none;stroke:#aa0000;stroke-width:30;stroke-linecap:butt;stroke-linejoin:miter;stroke-miterlimit:4;stroke-opacity:1;stroke-dasharray:none;stroke-dashoffset:0"
     d="m 564.44352,1538.0052 c 123.48,-85.3955 285.5321,-328.0316 381.2521,-493.8241 95.72098,-165.79261 224.82398,-427.45191 237.03798,-577.08641"
     sodipodi:nodetypes="csc" />
  <path
     id="path4509"
     d="m 1196.0886,1226.2883 c -351.87798,0 -703.62478,168.2851 -703.62478,326.6562 0,54.7412 48.6122,79.6066 100.1876,79.75 70.2427,0.1957 194.7372,-54.0716 296.0002,-140.125 l 14.187,0 c 102.48998,-9.9117 207.79998,-13.75 293.24998,-13.75 85.481,0 190.82,3.8314 293.344,13.75 l 14.094,0 c 101.263,86.0533 225.726,140.3207 295.968,140.125 51.576,-0.1435 100.188,-25.0089 100.188,-79.75 0,-158.3711 -351.716,-326.6562 -703.594,-326.6562 z"
     style="fill:#ffffff;stroke:none" />
  <g
     style="font-size:320.05267334px;font-style:normal;font-variant:normal;font-weight:normal;font-stretch:normal;text-align:center;line-height:100%;writing-mode:lr-tb;text-anchor:middle;fill:#787878;fill-opacity:1;stroke:none;font-family:Arial;-inkscape-font-specification:Arial"
     id="g4513"
     transform="translate(-74.9134,-21.752)">
    <path
       d="m 308.40329,1303.7746 -4.21945,0 c -0.62629,-3.0211 -1.56479,-5.1565 -2.81549,-6.4062 -1.3548,-1.0413 -3.49077,-1.5613 -6.40793,-1.5602 l -141.11696,0.056 c -2.81281,0 -4.8442,0.4708 -6.0942,1.4089 -1.24967,0.9382 -2.34273,3.1265 -3.27919,6.5649 l -4.06317,0 -0.0409,-103.4545 c -0.008,-21.8785 4.23028,-38.8621 12.71631,-50.951 8.48635,-12.0884 20.43904,-18.1358 35.85811,-18.1421 15.62767,-0.01 27.97573,5.7713 37.0442,17.3319 9.06864,11.561 13.60688,27.343 13.61472,47.3462 l 0.0249,62.9791 55.3216,-0.022 c 3.02134,0 5.10483,-0.4708 6.25048,-1.4089 1.14565,-0.9381 2.13453,-3.1263 2.96664,-6.5648 l 4.21944,0 z m -139.90361,-93.085 0.0191,48.2892 42.50699,-0.017 -0.0196,-49.5394 c -0.006,-14.6898 -1.72901,-25.4721 -5.16989,-32.347 -3.44068,-6.8746 -8.96378,-10.3105 -16.56931,-10.3077 -7.39692,0 -12.70897,3.3391 -15.93616,10.008 -1.5613,3.3346 -2.75766,7.789 -3.58906,13.363 -0.83113,5.5743 -1.24515,12.4245 -1.24208,20.5507 z"
       style="font-style:normal;font-variant:normal;font-weight:normal;font-stretch:normal;fill:#787878;fill-opacity:1;font-family:CopprplGoth Bd BT;-inkscape-font-specification:CopprplGoth Bd BT"
       id="path4515" />
    <path
       d="m 314.54229,1082.8398 -4.10843,-0.9615 c 0.0798,-3.0842 -0.34645,-5.3775 -1.27886,-6.8797 -1.08134,-1.3231 -3.04221,-2.317 -5.8826,-2.9818 l -137.4041,-32.1576 c -2.73881,-0.641 -4.82377,-0.6474 -6.2549,-0.019 -1.43084,0.6282 -2.99455,2.5092 -4.69115,5.643 l -3.95627,-0.9259 24.07373,-102.86285 c 4.98581,-21.30277 12.98943,-36.87045 24.01088,-46.70308 11.02167,-9.83221 24.03921,-12.99156 39.05264,-9.47807 12.07173,2.82544 21.29709,8.78298 27.6761,17.87263 6.37909,9.09007 9.81687,21.71801 10.31334,37.88388 l 56.31992,-23.25222 c 3.31519,-1.3639 6.41673,-3.07225 9.30463,-5.12505 2.88783,-2.05241 6.46743,-5.57485 10.73882,-10.56735 l 4.10843,0.96153 -14.06675,60.10478 -4.10842,-0.96153 c 0.19421,-2.20137 -0.0227,-4.01762 -0.65078,-5.44875 -0.62811,-1.43083 -1.60153,-2.30064 -2.92026,-2.60944 l -3.32818,0.50508 c -0.90653,0.21599 -1.69378,0.37949 -2.36177,0.49049 -0.66803,0.11132 -1.60421,0.45396 -2.80855,1.02793 l -58.07466,22.52055 -10.43432,44.58407 53.86605,12.6066 c 2.94183,0.6886 5.07752,0.7069 6.40707,0.055 1.32953,-0.6517 2.7918,-2.5565 4.38682,-5.7142 l 4.10843,0.9615 z M 200.7231,958.13733 l -11.53829,49.30117 44.88838,10.5055 11.82319,-50.51844 c 3.51378,-15.01336 4.20601,-26.08624 2.0767,-33.21867 -2.12919,-7.13208 -7.30223,-11.65973 -15.51916,-13.58297 -7.811,-1.82789 -14.10852,-0.065 -18.89257,5.2886 -4.78386,5.354 -9.06327,16.09559 -12.83825,32.22481 z"
       style="font-style:normal;font-variant:normal;font-weight:normal;font-stretch:normal;fill:#787878;fill-opacity:1;font-family:CopprplGoth Bd BT;-inkscape-font-specification:CopprplGoth Bd BT"
       id="path4517" />
    <path
       d="m 257.58621,712.67547 c 12.81891,-25.50612 30.64095,-42.69703 53.46617,-51.57276 22.82532,-8.87527 45.4086,-7.69895 67.74991,3.52898 22.43436,11.27516 36.88856,28.80037 43.36266,52.57567 6.47397,23.77565 3.37177,48.27691 -9.30664,73.50385 -12.44458,24.76169 -30.19609,41.63824 -53.25456,50.62969 -23.05848,8.99156 -45.71181,7.89663 -67.96008,-3.28479 -22.15504,-11.13454 -36.52797,-28.53145 -43.11884,-52.19079 -6.59065,-23.65913 -3.57019,-48.05572 9.06138,-73.18985 z m 49.2198,93.12321 c 15.26659,7.67266 30.03397,8.8562 44.30217,3.55063 14.26822,-5.3054 25.58949,-16.28958 33.96385,-32.95257 8.32752,-16.56968 10.37477,-32.18559 6.14175,-46.84779 -4.23308,-14.66188 -13.98288,-25.82919 -29.24942,-33.50195 -15.17346,-7.62559 -29.97593,-8.73932 -44.40744,-3.34118 -14.43144,5.39853 -25.81095,16.38259 -34.13857,32.95222 -8.2339,16.38377 -10.21109,31.91829 -5.93158,46.60361 4.27967,14.68555 14.05274,25.86455 29.31924,33.53703 z"
       style="font-style:normal;font-variant:normal;font-weight:normal;font-stretch:normal;fill:#787878;fill-opacity:1;font-family:CopprplGoth Bd BT;-inkscape-font-specification:CopprplGoth Bd BT"
       id="path4519" />
    <path
       d="m 372.70005,580.42661 c -2.04113,2.50297 -3.0112,4.43421 -2.91019,5.79373 0.10119,1.35972 1.10687,3.42346 3.01703,6.19123 l -2.66677,3.26988 -35.12085,-28.64306 2.568,-3.14877 c 2.73659,1.42524 5.01725,2.00807 6.84198,1.74852 1.66349,-0.39101 3.41702,-1.7169 5.26059,-3.97767 l 88.99102,-109.11684 c 1.97541,-2.42189 2.94175,-4.38978 2.89903,-5.90367 -0.0427,-1.51341 -1.12537,-3.60635 -3.24807,-6.27883 l 2.66677,-3.26987 35.36306,28.84059 -2.66677,3.26987 c -2.73647,-1.42489 -4.9603,-1.99499 -6.67148,-1.71029 -1.7112,0.28513 -3.48863,1.55791 -5.33233,3.81834 l -32.9889,40.44953 96.76399,78.91656 c 2.42206,1.97548 4.41386,2.99493 5.97539,3.05835 1.1726,-0.11904 3.17579,-1.17409 6.00957,-3.16518 l 3.26988,2.66677 -32.89014,40.32842 -3.26987,-2.66677 c 1.32944,-2.94883 1.82625,-5.16521 1.49043,-6.64914 -0.33591,-1.48381 -1.57577,-3.30162 -3.71958,-5.45343 l -96.64288,-78.8178 z"
       style="font-style:normal;font-variant:normal;font-weight:normal;font-stretch:normal;fill:#787878;fill-opacity:1;font-family:CopprplGoth Bd BT;-inkscape-font-specification:CopprplGoth Bd BT"
       id="path4521" />
    <path
       d="m 708.76546,399.27765 c 2.52418,-2.0145 3.94175,-3.74569 4.25271,-5.19357 0.3107,-1.4476 -0.25621,-3.66108 -1.70072,-6.64046 l 3.17575,-2.53455 28.56246,35.78824 -3.17575,2.53456 c -2.3734,-1.97141 -4.42639,-2.99886 -6.15898,-3.08234 -1.73289,-0.0833 -3.77998,0.8174 -6.14129,2.70195 l -119.33488,95.2407 -2.63204,-3.2979 c 2.06937,-2.58462 3.10504,-4.71082 3.107,-6.3786 0.002,-1.66773 -0.87446,-3.6009 -2.62913,-5.79953 L 518.06362,392.31994 c -1.94958,-2.44273 -3.68488,-3.8237 -5.2059,-4.14289 -1.52088,-0.3189 -3.81168,0.27639 -6.87242,1.78587 l -2.53455,-3.17575 117.86915,-94.0709 c 2.44284,-1.94942 3.80345,-3.66847 4.08182,-5.15717 0.27829,-1.4882 -0.33735,-3.76276 -1.84694,-6.82367 l 3.29789,-2.63204 28.46498,35.66611 -3.29789,2.63203 c -2.4383,-2.05273 -4.4954,-3.04357 -6.17131,-2.97252 -1.67603,0.0715 -3.61332,0.98447 -5.81186,2.73894 l -82.81376,66.09334 23.00594,28.82603 52.76629,-42.11257 c 2.52427,-2.01448 3.90112,-3.71317 4.13057,-5.09609 0.22935,-1.38258 -0.29684,-3.62856 -1.57857,-6.73794 l 3.17575,-2.53456 26.51532,33.22322 -3.17575,2.53456 c -2.37332,-1.97138 -4.37346,-2.97436 -6.00043,-3.00894 -1.6271,-0.0343 -3.66206,0.92333 -6.10488,2.87284 l -52.76629,42.11257 27.29518,34.20037 z"
       style="font-style:normal;font-variant:normal;font-weight:normal;font-stretch:normal;fill:#787878;fill-opacity:1;font-family:CopprplGoth Bd BT;-inkscape-font-specification:CopprplGoth Bd BT"
       id="path4523" />
    <path
       d="m 891.33716,300.57166 c 2.89284,-1.43573 4.58576,-2.77027 5.07876,-4.00362 0.49272,-1.23315 0.44119,-3.50469 -0.15461,-6.81463 l 3.71006,-2.01583 20.35641,41.01499 -3.77954,1.87585 c -2.04292,-2.47537 -3.91406,-3.90196 -5.61342,-4.27979 -1.69967,-0.37768 -3.76261,0.0356 -6.18883,1.23973 l -133.40371,66.21044 -4.23803,-8.53896 34.15975,-160.36417 -77.69051,38.55907 c -2.79962,1.38965 -4.55095,2.78226 -5.254,4.17783 -0.423,1.25688 -0.33656,3.54018 0.25934,6.84988 l -3.77954,1.87585 -20.14798,-40.59505 3.77954,-1.87584 c 1.9495,2.52192 3.61084,3.99449 4.98402,4.41771 1.37328,0.42355 3.64637,-0.15215 6.81927,-1.7271 l 131.86389,-65.4462 3.12641,6.29923 -33.9575,162.88077 z"
       style="font-style:normal;font-variant:normal;font-weight:normal;font-stretch:normal;fill:#787878;fill-opacity:1;font-family:CopprplGoth Bd BT;-inkscape-font-specification:CopprplGoth Bd BT"
       id="path4525" />
    <path
       d="m 997.23465,283.32678 c 0.93305,2.98301 2.03367,4.93112 3.30185,5.84435 1.1748,0.61499 3.4434,0.8878 6.8058,0.81845 l 1.213,3.87787 -50.11397,15.67627 -1.2597,-4.02702 c 2.69689,-1.49858 4.40561,-3.01555 5.12615,-4.5509 0.52162,-1.4731 0.33144,-3.65143 -0.57054,-6.535 L 919.60727,159.74945 c -0.96421,-3.08224 -2.09746,-5.04744 -3.39978,-5.89559 -1.30228,-0.84782 -3.53823,-1.10356 -6.70785,-0.76721 l -1.21304,-3.87787 50.11399,-15.67627 1.21304,3.87787 c -2.59751,1.46768 -4.23165,2.96132 -4.90243,4.48092 -0.67082,1.51995 -0.53966,3.77133 0.39348,6.75413 z"
       style="font-style:normal;font-variant:normal;font-weight:normal;font-stretch:normal;fill:#787878;fill-opacity:1;font-family:CopprplGoth Bd BT;-inkscape-font-specification:CopprplGoth Bd BT"
       id="path4527" />
    <path
       d="m 1125.3276,96.333224 c 28.3139,-3.634649 52.5316,1.528178 72.6532,15.488496 20.1213,13.96065 31.7739,33.34118 34.9579,58.14163 3.1969,24.90401 -3.2502,46.68687 -19.3411,65.34865 -16.0912,18.66186 -38.1387,29.79029 -66.1426,33.38532 -27.4874,3.52871 -51.4051,-1.75141 -71.753,-15.8404 -20.3481,-14.08893 -32.1074,-33.48202 -35.2779,-58.17934 -3.1572,-24.5938 3.2288,-46.23754 19.1583,-64.93128 15.9294,-18.69344 37.8445,-29.831123 65.7452,-33.413076 z m -49.682,92.877426 c 2.1755,16.94714 9.4518,29.8519 21.8287,38.7143 12.3768,8.86252 27.8138,12.10645 46.311,9.73183 18.3936,-2.36127 32.4848,-9.39592 42.2736,-21.10395 9.7885,-11.70792 13.595,-26.03543 11.4196,-42.98259 -2.1625,-16.84361 -9.5163,-29.73841 -22.0613,-38.68445 -12.5452,-8.94575 -28.0147,-12.23805 -46.4083,-9.87689 -18.1872,2.33494 -32.1717,9.38216 -41.9537,21.14166 -9.7821,11.75978 -13.5853,26.11313 -11.4096,43.06009 z"
       style="font-style:normal;font-variant:normal;font-weight:normal;font-stretch:normal;fill:#787878;fill-opacity:1;font-family:CopprplGoth Bd BT;-inkscape-font-specification:CopprplGoth Bd BT"
       id="path4529" />
    <path
       d="m 1342.8711,145.02268 -11.7336,99.79787 c -0.3651,3.10413 -0.1549,5.33177 0.6304,6.68291 0.7304,0.92509 2.6964,2.04791 5.8981,3.36844 l -0.4927,4.19058 -47.6485,-5.6022 0.4927,-4.19058 c 3.2928,-0.34717 5.5325,-1.10662 6.7193,-2.27835 1.1868,-1.17173 1.9444,-3.15446 2.2729,-5.94818 l 16.4782,-140.1516 c 0.3649,-3.103985 0.1258,-5.308794 -0.7172,-6.614438 -0.8431,-1.305333 -2.8776,-2.514873 -6.1035,-3.628625 l 0.4745,-4.035373 59.7545,7.025569 -0.4744,4.035373 c -1.6922,0.115918 -3.0494,0.507072 -4.0718,1.173464 -1.0226,0.666695 -1.6646,1.66644 -1.9262,2.99925 -0.1217,1.03486 0.081,2.21258 0.6074,3.53316 0.5265,1.32088 1.5263,2.8546 2.9995,4.60117 l 79.8012,102.84971 11.2044,-95.29688 c 0.3648,-3.10399 0.1196,-5.25707 -0.7354,-6.45922 -0.8554,-1.20188 -2.8838,-2.46316 -6.0852,-3.78384 l 0.4744,-4.03537 47.6485,5.60221 -0.4745,4.03537 c -3.2017,0.46294 -5.3669,1.25738 -6.4956,2.38333 -1.1292,1.12621 -1.864,3.13785 -2.2044,6.03491 l -16.4782,140.1516 c -0.3651,3.10411 -0.1717,5.25111 0.5802,6.44098 0.7516,1.18983 2.7344,2.39329 5.9483,3.61037 l -0.4927,4.19058 -54.9431,-6.45987 0.4927,-4.19058 c 1.6918,-0.11578 3.0521,-0.5328 4.0809,-1.25107 1.0284,-0.71829 1.6096,-1.64652 1.7435,-2.78469 0.1337,-1.13819 -0.066,-2.34178 -0.5982,-3.61076 -0.5328,-1.269 -1.484,-2.77077 -2.8534,-4.50532 z"
       style="font-style:normal;font-variant:normal;font-weight:normal;font-stretch:normal;fill:#787878;fill-opacity:1;font-family:CopprplGoth Bd BT;-inkscape-font-specification:CopprplGoth Bd BT"
       id="path4531" />
    <path
       d="m 1687.9652,316.5696 c 3.0223,1.13798 5.2351,1.47014 6.6382,0.99647 1.4027,-0.47374 3.0144,-2.09339 4.8351,-4.85894 l 3.8026,1.43169 -16.1341,42.85211 -3.8026,-1.4317 c 0.4794,-3.04789 0.3117,-5.33749 -0.5031,-6.86882 -0.8151,-1.53147 -2.6364,-2.82946 -5.4637,-3.89399 l -142.8891,-53.79877 1.4867,-3.94883 c 3.2795,0.45549 5.6362,0.25741 7.0702,-0.59426 1.4338,-0.85167 2.6464,-2.59378 3.6376,-5.22633 l 49.7239,-132.06639 c 1.1012,-2.92492 1.3998,-5.12246 0.8958,-6.59262 -0.5042,-1.46988 -2.1878,-3.1335 -5.0508,-4.99088 l 1.4317,-3.80258 141.1341,53.13799 c 2.9248,1.10139 5.098,1.39082 6.5195,0.86827 1.421,-0.52236 3.0603,-2.21514 4.9177,-5.07832 l 3.9489,1.48676 -16.0791,42.70585 -3.9488,-1.48676 c 0.5161,-3.14526 0.3148,-5.41967 -0.6037,-6.82323 -0.919,-1.40344 -2.6947,-2.60077 -5.327,-3.59201 l -99.1595,-37.33426 -12.9954,34.51569 63.1812,23.7882 c 3.0224,1.13806 5.1864,1.45186 6.492,0.9414 1.3052,-0.51037 2.9657,-2.11166 4.9814,-4.80388 l 3.8026,1.4317 -14.9778,39.78079 -3.8025,-1.43169 c 0.4794,-3.04781 0.3177,-5.27949 -0.485,-6.69504 -0.8031,-1.41553 -2.6671,-2.67395 -5.592,-3.77527 l -63.1813,-23.7882 -15.4183,40.95082 z"
       style="font-style:normal;font-variant:normal;font-weight:normal;font-stretch:normal;fill:#787878;fill-opacity:1;font-family:CopprplGoth Bd BT;-inkscape-font-specification:CopprplGoth Bd BT"
       id="path4533" />
    <path
       d="m 1976.0524,479.59194 4.043,0.51047 -4.999,42.75154 -4.2632,-0.48993 -0.8685,-3.35943 -1.0445,-1.67825 c -1.0427,-0.86465 -4.7132,-1.74285 -11.0114,-2.63462 -29.3051,-4.81155 -53.1802,-14.86515 -71.6254,-30.16083 -21.3325,-17.68995 -33.8693,-38.84597 -37.6103,-63.46812 -3.7412,-24.62217 2.4018,-46.59699 18.4292,-65.92452 16.2267,-19.56801 36.8151,-29.66563 61.765,-30.29289 24.9497,-0.6271 49.0131,8.66904 72.1902,27.88844 11.869,9.84254 22.2056,21.69631 31.01,35.56134 8.8039,13.86507 13.6069,21.13011 14.4092,21.79514 1.2829,1.06405 2.3518,1.81515 3.2069,2.25328 l 4.1281,2.61123 1.25,3.87875 -42.4051,14.16882 -1.6109,-4.17802 0.5194,-0.38143 0.7188,-0.62201 c 2.9924,-3.60889 1.3532,-11.26174 -4.9177,-22.95859 -6.2713,-11.69684 -14.6998,-21.93448 -25.2856,-30.71295 -14.4357,-11.97056 -29.7297,-17.6829 -45.8823,-17.13705 -16.1528,0.54596 -29.4829,7.15448 -39.9904,19.82557 -11.1061,13.39293 -15.4326,28.07671 -12.9795,44.0514 2.4529,15.97466 11.1377,30.1468 26.0545,42.51647 11.1472,9.2439 23.9924,15.86924 38.5355,19.87603 14.5428,4.00664 23.0446,4.52635 25.5054,1.55914 l 1.3555,-2.12424 z"
       style="font-style:normal;font-variant:normal;font-weight:normal;font-stretch:normal;fill:#787878;fill-opacity:1;font-family:CopprplGoth Bd BT;-inkscape-font-specification:CopprplGoth Bd BT"
       id="path4535" />
    <path
       d="m 2023.7478,599.27375 c -2.3716,2.03574 -3.7264,3.81653 -4.0642,5.34237 -0.1008,1.32216 0.5449,3.51395 1.9371,6.57537 l -3.083,2.64653 -34.2013,-39.84253 3.2016,-2.74832 c 2.4422,1.88535 4.5109,2.85566 6.206,2.91095 1.5593,-0.10287 3.4853,-1.13825 5.7779,-3.10617 l 107.0768,-91.91604 c 2.4504,-2.10358 3.808,-3.9211 4.0726,-5.45256 0.2642,-1.53131 -0.3843,-3.68637 -1.9456,-6.46519 l 3.0831,-2.64653 34.2013,39.84253 -3.0831,2.64653 c -2.3745,-1.80627 -4.3923,-2.71729 -6.0533,-2.73308 -1.6613,-0.0157 -3.6777,0.99434 -6.0491,3.03009 z"
       style="font-style:normal;font-variant:normal;font-weight:normal;font-stretch:normal;fill:#787878;fill-opacity:1;font-family:CopprplGoth Bd BT;-inkscape-font-specification:CopprplGoth Bd BT"
       id="path4537" />
    <path
       d="m 2176.2925,572.3934 c 3.503,-5.06265 5.5847,-8.95422 6.2452,-11.67472 0.6602,-2.72035 0.5581,-5.89118 -0.3064,-9.5125 l 3.4698,-2.1143 30.576,50.17772 -3.4697,2.1143 c -2.5163,-2.12686 -4.5308,-3.43081 -6.0438,-3.91184 -1.5133,-0.48097 -2.9371,-0.31487 -4.2715,0.49829 -0.8008,0.48795 -1.9532,1.80019 -3.4572,3.93673 l -0.5046,0.6735 -62.4978,94.44848 111.3185,-14.02942 3.5865,-0.72142 2.3792,-0.90075 c 1.3343,-0.81324 2.1124,-1.98891 2.3344,-3.52702 0.2215,-1.53819 0.01,-3.93995 -0.639,-7.20527 l 3.4697,-2.11431 29.4376,48.30941 -3.4697,2.1143 c -4.5139,-4.20383 -10.6804,-5.81436 -18.4995,-4.83158 l -2.9192,0.31481 -142.3854,17.40485 -2.3792,0.90076 -2.6169,1.41161 c -1.6015,0.97573 -2.5759,2.17955 -2.9234,3.61146 -0.3476,1.4317 -0.1704,3.82476 0.5316,7.17921 l -3.6032,2.19562 -31.4706,-51.64569 3.6032,-2.19562 c 2.3187,2.00312 4.2568,3.23165 5.8144,3.6856 1.5576,0.45383 3.0926,0.21997 4.6051,-0.70159 l 1.7057,-1.40537 2.4188,-2.93795 z"
       style="font-style:normal;font-variant:normal;font-weight:normal;font-stretch:normal;fill:#787878;fill-opacity:1;font-family:CopprplGoth Bd BT;-inkscape-font-specification:CopprplGoth Bd BT"
       id="path4539" />
    <path
       d="m 2183.0898,872.39556 c -2.8976,1.1717 -4.7501,2.42657 -5.5575,3.76461 -0.5178,1.22073 -0.6059,3.50395 -0.2643,6.84969 l -3.7668,1.5233 -19.6857,-48.67887 3.9117,-1.58188 c 1.7122,2.56658 3.3627,4.14675 4.9513,4.74051 1.5106,0.40053 3.6663,0.0345 6.4673,-1.09822 l 130.8245,-52.90523 c 2.9939,-1.2108 4.8608,-2.49958 5.6007,-3.86634 0.7395,-1.36671 0.8132,-3.61603 0.2211,-6.74796 l 3.7668,-1.5233 19.6857,48.67887 -3.7668,1.52329 c -1.6734,-2.47004 -3.2945,-3.97777 -4.8635,-4.52319 -1.5693,-0.54545 -3.8026,-0.23228 -6.7,0.93949 z"
       style="font-style:normal;font-variant:normal;font-weight:normal;font-stretch:normal;fill:#787878;fill-opacity:1;font-family:CopprplGoth Bd BT;-inkscape-font-specification:CopprplGoth Bd BT"
       id="path4541" />
    <path
       d="m 2256.3306,1077.8757 c 0.7,3.1527 1.5895,5.1163 2.6686,5.8907 1.079,0.7741 3.2966,1.269 6.6528,1.4845 l 1.0671,4.0852 -44.7003,9.9246 -0.9145,-4.1192 c 2.814,-1.2652 4.6957,-2.6435 5.6453,-4.1348 0.7235,-1.5482 0.7691,-3.7461 0.1368,-6.5937 l -32.5511,-146.61088 4.1191,-0.91454 c 1.412,2.99482 2.8665,4.85964 4.3637,5.59448 1.4971,0.73477 3.6187,0.79732 6.3649,0.18765 l 137.7623,-30.58658 c 3.0511,-0.67744 5.0542,-1.62912 6.0095,-2.85502 0.9549,-1.2259 1.4272,-3.5452 1.4167,-6.95791 l 3.9665,-0.88067 11.4488,51.56552 -3.9665,0.88068 c -1.2653,-2.81406 -2.6577,-4.63932 -4.1773,-5.4758 -1.5199,-0.83654 -3.7545,-0.92737 -6.7039,-0.27247 l -121.4383,26.96226 z"
       style="font-style:normal;font-variant:normal;font-weight:normal;font-stretch:normal;fill:#787878;fill-opacity:1;font-family:CopprplGoth Bd BT;-inkscape-font-specification:CopprplGoth Bd BT"
       id="path4543" />
    <path
       d="m 2263.668,1295.2305 c -0.01,3.2296 0.4597,5.4182 1.3955,6.566 0.9356,1.1474 3.0177,2.0885 6.2463,2.8234 l -0.01,4.0632 -45.7887,-0.077 0.01,-4.0632 c 3.0224,-0.6202 5.1077,-1.5804 6.2559,-2.8806 1.1482,-1.3006 1.7248,-3.4614 1.7299,-6.4826 l 0.2561,-152.6811 4.2195,0.01 c 0.7238,3.2308 1.7361,5.3683 3.0366,6.4124 1.3005,1.044 3.3573,1.5683 6.1703,1.5731 l 141.1167,0.2367 c 3.1254,0.01 5.288,-0.486 6.488,-1.4737 1.1996,-0.9878 2.1669,-3.148 2.9019,-6.4806 l 4.0632,0.01 -0.253,150.8059 c -0.01,3.1253 0.4859,5.2619 1.4739,6.4097 0.9876,1.1475 3.1479,2.0888 6.4807,2.8239 l -0.01,4.2194 -45.6324,-0.077 0.01,-4.2195 c 3.1264,-0.62 5.1857,-1.6063 6.1778,-2.9588 0.9919,-1.353 1.4903,-3.4358 1.4951,-6.2486 l 0.1778,-105.9548 -36.881,-0.062 -0.1133,67.511 c -0.01,3.2295 0.4597,5.3661 1.3957,6.4096 0.9358,1.0433 3.0178,2.0365 6.2461,2.9798 l -0.01,4.0631 -42.507,-0.071 0.01,-4.0631 c 3.0223,-0.6202 5.0555,-1.5545 6.0995,-2.8028 1.0439,-1.2486 1.5684,-3.4356 1.5738,-6.5609 l 0.1132,-67.511 -43.7571,-0.073 z"
       style="font-style:normal;font-variant:normal;font-weight:normal;font-stretch:normal;fill:#787878;fill-opacity:1;font-family:CopprplGoth Bd BT;-inkscape-font-specification:CopprplGoth Bd BT"
       id="path4545" />
  </g>
  <g
     style="font-size:150px;font-style:normal;font-variant:normal;font-weight:normal;font-stretch:normal;text-align:center;line-height:100%;writing-mode:lr-tb;text-anchor:middle;fill:#787878;fill-opacity:1;stroke:none;font-family:Arial;-inkscape-font-specification:Arial"
     id="g4547"
     transform="translate(-74.9134,-21.752)">
    <path
       d="m 446.0994,1820.3134 -79.19107,64.3478 c -2.46323,2.0014 -3.88723,3.772 -4.272,5.3116 -0.12317,1.1905 0.51326,3.3997 1.90928,6.6276 l -3.32529,2.702 -30.72284,-37.8098 3.32528,-2.702 c 2.64293,2.0783 4.81114,3.111 6.50465,3.0981 1.69346,-0.013 3.64863,-0.92 5.86551,-2.7214 l 111.21235,-90.3671 c 2.46302,-2.0015 3.84982,-3.7758 4.16038,-5.3231 0.31026,-1.5472 -0.31462,-3.868 -1.87465,-6.9625 l 3.20212,-2.6019 38.52865,47.4161 -3.20213,2.6019 c -1.31396,-1.1135 -2.57897,-1.7896 -3.79502,-2.0282 -1.21643,-0.2385 -2.39159,0.035 -3.5255,0.82 -0.82124,0.6672 -1.50757,1.6679 -2.05901,3.0021 -0.55179,1.3343 -0.90966,3.1587 -1.07361,5.4731 l -14.71284,131.3689 75.61947,-61.4457 c 2.46293,-2.0015 3.80867,-3.7425 4.03722,-5.223 0.22807,-1.4806 -0.35577,-3.8347 -1.75149,-7.0625 l 3.20212,-2.602 30.72285,37.8098 -3.20213,2.6019 c -2.6586,-1.9295 -4.7973,-2.8839 -6.41611,-2.8633 -1.61934,0.021 -3.57836,0.9649 -5.87706,2.833 l -111.21234,90.3672 c -2.46332,2.0013 -3.84242,3.7013 -4.1373,5.0998 -0.29516,1.3983 0.29636,3.6781 1.77458,6.8393 l -3.32529,2.7021 -35.42634,-43.5982 3.32529,-2.7021 c 1.31367,1.1135 2.5992,1.7728 3.8566,1.9782 1.25718,0.2051 2.33741,-0.059 3.24069,-0.793 0.90305,-0.734 1.60991,-1.7514 2.12059,-3.0522 0.51044,-1.301 0.88114,-3.0677 1.11211,-5.2999 z"
       style="font-size:325px;fill:#787878;fill-opacity:1"
       id="path4549" />
    <path
       d="m 508.3176,2066.4436 2.57826,-3.4222 c 5.60224,2.2339 12.37524,1.2436 20.31903,-2.9708 l 2.00185,-1.0748 130.30658,-67.7314 2.82829,-1.6442 1.3039,-1.2032 c 1.08207,-1.4364 1.4455,-3.1495 1.0903,-5.1393 -0.35553,-1.9896 -1.47194,-4.2878 -3.34925,-6.8945 l 2.48278,-3.2954 46.13531,34.7588 -2.48277,3.2954 c -3.10806,-1.1493 -5.36573,-1.625 -6.77303,-1.4271 -1.4077,0.198 -2.73706,0.9515 -3.98809,2.2606 l -1.27437,2.2189 -0.99135,3.4256 -27.61157,145.3015 c -1.17726,6.1334 -1.56845,10.8722 -1.17355,14.2162 0.50105,3.0267 1.80672,5.8649 3.917,8.5145 l -2.57826,3.4221 -49.05046,-36.9551 2.57826,-3.4221 c 2.93874,1.0219 5.22825,1.4554 6.86852,1.3003 1.64003,-0.1552 3.00122,-0.951 4.08358,-2.3873 l 1.17888,-2.0922 c 0.46749,-0.9724 0.82977,-2.1565 1.08685,-3.5523 l 5.86991,-28.3613 -62.48547,-47.0772 -25.13521,13.8466 -3.11477,2.0245 -1.68586,1.7102 c -1.08227,1.4364 -1.50879,2.9695 -1.27955,4.5993 0.42013,1.3762 1.50529,3.4521 3.25548,6.2278 l -2.57826,3.4221 z m 155.19734,-42.223 -59.38557,30.5616 45.2481,34.0903 z"
       style="font-size:325px;fill:#787878;fill-opacity:1"
       id="path4551" />
    <path
       d="m 878.78973,2255.4227 c 2.98593,1.3561 5.12245,1.8326 6.40956,1.4295 1.28677,-0.4032 3.04178,-1.901 5.26504,-4.4933 l 3.96681,1.6272 -19.22673,42.3352 -3.90119,-1.7718 c 0.63796,-3.196 0.56058,-5.5841 -0.23216,-7.1642 -0.79304,-1.5802 -2.44172,-2.9389 -4.94604,-4.0763 l -137.6976,-62.5361 4.00284,-8.8138 148.14638,-75.9852 -80.19115,-36.4192 c -2.88985,-1.3123 -5.10955,-1.7975 -6.6591,-1.4557 -1.26073,0.4734 -3.0026,2.0062 -5.22561,4.5984 l -3.90119,-1.7717 19.02988,-41.9017 3.90119,1.7717 c -0.73455,3.1524 -0.82794,5.4048 -0.28019,6.7573 0.54757,1.3527 2.45894,2.7726 5.73411,4.2599 l 136.10823,61.8143 -2.95291,6.5019 -149.99763,77.7589 z"
       style="font-size:325px;fill:#787878;fill-opacity:1"
       id="path4553" />
    <path
       d="m 1013.828,2312.4058 c -0.7794,3.0767 -0.8634,5.3473 -0.252,6.8117 0.6891,1.1568 2.5065,2.5993 5.452,4.3276 l -1.0131,3.9997 -51.68807,-13.0918 1.05202,-4.1535 c 3.12994,0.1379 5.41483,-0.2656 6.85469,-1.2105 1.23467,-0.9969 2.22868,-2.9824 2.98201,-5.9565 l 35.18425,-138.9118 c 0.8051,-3.1791 0.87,-5.4818 0.1945,-6.9081 -0.6756,-1.426 -2.4738,-2.8364 -5.3946,-4.2311 l 1.0131,-3.9997 51.6881,13.0918 -1.0131,3.9997 c -3.0275,-0.1119 -5.2355,0.3111 -6.6239,1.2689 -1.3887,0.958 -2.4726,2.9753 -3.2517,6.0519 z"
       style="font-size:325px;fill:#787878;fill-opacity:1"
       id="path4555" />
    <path
       d="m 1216.7,2180.478 c 28.9429,1.6065 52.1692,11.2396 69.6787,28.8995 17.5092,17.6601 25.5604,39.1659 24.1536,64.5174 -1.4131,25.4573 -11.8783,46.0149 -31.3955,61.6729 -19.5177,15.658 -43.5895,22.6926 -72.2155,21.1039 -28.0981,-1.5595 -51.0031,-11.2543 -68.7149,-29.0845 -17.7118,-17.8301 -25.8672,-39.3682 -24.466,-64.6142 1.3953,-25.1402 11.7739,-45.5702 31.1358,-61.2899 19.3619,-15.7195 43.3032,-22.7878 71.8238,-21.2051 z m -66.7808,83.5493 c -0.9615,17.3237 3.9174,31.5543 14.6367,42.6919 10.7192,11.1376 25.5329,17.2312 44.441,18.2805 18.8023,1.0436 34.1729,-3.3747 46.1118,-13.2549 11.9386,-9.88 18.3886,-23.4819 19.3503,-40.8056 0.9554,-17.2178 -4.0027,-31.4528 -14.8744,-42.705 -10.872,-11.252 -25.7091,-17.3998 -44.5114,-18.4434 -18.5913,-1.0317 -33.8577,3.4189 -45.7993,13.3517 -11.9417,9.933 -18.3933,23.5613 -19.3547,40.8848 z"
       style="font-size:325px;fill:#787878;fill-opacity:1"
       id="path4557" />
    <path
       d="m 1416.9365,2231.0876 20.0396,100.0515 c 0.6232,3.112 1.5263,5.1969 2.7093,6.2547 0.9961,0.6637 3.2473,1.1299 6.7539,1.3986 l 0.8415,4.2012 -47.7695,9.5679 -0.8415,-4.2012 c 3.0703,-1.3703 4.9942,-2.8076 5.7719,-4.312 0.7776,-1.5045 0.8859,-3.6571 0.325,-6.4579 l -28.1426,-140.5077 c -0.6234,-3.1119 -1.5472,-5.1657 -2.7716,-6.1614 -1.2244,-0.9954 -3.5691,-1.5238 -7.034,-1.5852 l -0.8103,-4.0457 59.9063,-11.9987 0.8103,4.0456 c -1.5974,0.6438 -2.785,1.4481 -3.5627,2.4129 -0.7779,0.9652 -1.0836,2.1324 -0.9172,3.5015 0.2078,1.0375 0.7735,2.1111 1.6971,3.2207 0.9235,1.1099 2.371,2.2765 4.3425,3.5 l 109.3834,74.2262 -19.1358,-95.539 c -0.6234,-3.1119 -1.5369,-5.1138 -2.7404,-6.0058 -1.2037,-0.8916 -3.5588,-1.4719 -7.0651,-1.7408 l -0.8103,-4.0457 47.7695,-9.5678 0.8103,4.0456 c -2.946,1.4534 -4.787,2.9011 -5.523,4.3431 -0.7363,1.4424 -0.8135,3.6157 -0.2315,6.5201 l 28.1426,140.5077 c 0.6231,3.112 1.4847,5.1243 2.5848,6.0369 1.0997,0.9126 3.3925,1.4514 6.8784,1.6164 l 0.8415,4.2012 -55.0828,11.0327 -0.8415,-4.2013 c 1.5973,-0.6436 2.7797,-1.4738 3.5472,-2.4907 0.7673,-1.0168 1.0367,-2.0958 0.8083,-3.2369 -0.2287,-1.141 -0.7996,-2.2405 -1.7126,-3.2985 -0.9134,-1.0578 -2.3038,-2.2089 -4.1713,-3.4533 z"
       style="font-size:325px;fill:#787878;fill-opacity:1"
       id="path4559" />
    <path
       d="m 1663.6872,2290.5934 -1.8385,-3.8702 c 4.5749,-3.9301 6.8348,-10.3913 6.7796,-19.3836 l -0.025,-2.272 0.3368,-146.8579 -0.147,-3.2682 -0.4624,-1.7129 c -0.7717,-1.6243 -2.1215,-2.74 -4.0495,-3.3469 -1.9279,-0.6066 -4.4818,-0.6818 -7.6616,-0.2256 l -1.7704,-3.7269 52.176,-24.7852 1.7704,3.7269 c -2.4583,2.2221 -3.9258,4.0025 -4.4023,5.3414 -0.4766,1.3393 -0.4246,2.8664 0.156,4.5816 l 1.3761,2.1572 2.5767,2.4655 115.9806,91.7792 c 4.8903,3.8845 8.9087,6.4264 12.0553,7.6255 2.9145,0.958 6.0345,1.1156 9.3603,0.4728 l 1.8384,3.8702 -55.4728,26.3513 -1.8385,-3.8702 c 2.267,-2.131 3.7118,-3.9593 4.3342,-5.4848 0.6222,-1.5253 0.5475,-3.1003 -0.2241,-4.7249 l -1.308,-2.0139 c -0.6452,-0.8647 -1.5268,-1.7343 -2.6448,-2.6088 l -22.4156,-18.3401 -70.667,33.569 0.6279,28.69 0.3513,3.6982 0.7347,2.2863 c 0.7716,1.6245 1.9327,2.7127 3.4833,3.2645 1.4142,0.2652 3.7567,0.2651 7.0273,-2e-4 l 1.8385,3.8702 z m 34.4735,-157.1005 -0.4248,66.7868 51.1726,-24.3086 z"
       style="font-size:325px;fill:#787878;fill-opacity:1"
       id="path4561" />
    <path
       d="m 2013.9705,2040.238 c 2.5706,-2.0364 3.9707,-3.7191 4.2002,-5.0482 0.2293,-1.3288 -0.301,-3.5742 -1.591,-6.7364 l 3.26,-2.7849 28.8719,36.4465 -3.3586,2.6605 c -2.4028,-2.0106 -4.4958,-3.1194 -6.2791,-3.3263 -1.7351,0.025 -3.7636,0.9569 -6.0854,2.7962 l -119.5396,94.6958 -2.6605,-3.3586 c 2.1109,-2.6169 3.1704,-4.7721 3.1785,-6.4657 0.01,-1.6935 -0.8747,-3.6597 -2.6484,-5.8988 l -88.9805,-112.3249 c -1.9707,-2.4877 -3.7277,-3.8964 -5.2711,-4.2261 -1.5432,-0.3294 -3.8716,0.2666 -6.9852,1.7881 l -2.562,-3.2341 42.0441,-33.3061 2.562,3.2341 c -2.0107,2.4029 -3.0616,4.4838 -3.1526,6.2428 -0.091,1.7594 0.816,3.8414 2.721,6.2462 l 78.4369,99.015 z"
       style="font-size:325px;fill:#787878;fill-opacity:1"
       id="path4563" />
    <path
       d="m 2181.1555,1848.605 c 2.0346,-2.572 3.0396,-4.6098 3.015,-6.1133 -0.025,-1.5033 -1.0936,-3.5628 -3.2062,-6.1785 l 2.5598,-3.2359 36.4662,28.8471 -2.5598,3.2359 c -2.8001,-1.4055 -5.0667,-1.9507 -6.7997,-1.6357 -1.7333,0.3153 -3.5516,1.676 -5.4549,4.082 l -96.1896,121.5953 -3.3604,-2.6582 c 1.4539,-3.0316 1.9905,-5.3724 1.6097,-7.0226 -0.3808,-1.6502 -1.6913,-3.3614 -3.9316,-5.1336 l -112.3854,-88.904 c -2.4891,-1.9689 -4.5225,-2.9368 -6.1003,-2.9035 -1.5776,0.034 -3.7071,1.1481 -6.3883,3.3436 l -3.2359,-2.5598 95.0081,-120.1018 c 1.9691,-2.4889 2.9205,-4.5016 2.8543,-6.0381 -0.066,-1.536 -1.1972,-3.6447 -3.3928,-6.3261 l 2.6582,-3.3603 36.3417,28.7485 -2.6582,3.3604 c -2.883,-1.471 -5.1453,-1.9791 -6.7868,-1.5242 -1.6415,0.4553 -3.3483,1.803 -5.1205,4.043 l -66.7518,84.3824 29.372,23.2352 42.5322,-53.7658 c 2.0347,-2.572 3.0069,-4.5683 2.9165,-5.9889 -0.09,-1.4203 -1.1263,-3.5212 -3.1077,-6.3029 l 2.5598,-3.2359 33.8525,26.7795 -2.5598,3.2359 c -2.8,-1.4054 -5.0087,-1.9386 -6.626,-1.5994 -1.6174,0.3394 -3.4106,1.7537 -5.3796,4.2427 l -42.5322,53.7658 34.8482,27.5671 z"
       style="font-size:325px;fill:#787878;fill-opacity:1"
       id="path4565" />
  </g>
  <path
     style="fill:#787878;fill-opacity:1;fill-rule:nonzero;stroke:none"
     d="m 2189.5416,1509.123 c -20.845,0 -37.75,16.9054 -37.75,37.75 0,20.8446 16.905,37.75 37.75,37.75 20.844,0 37.719,-16.9054 37.719,-37.75 0,-20.8446 -16.875,-37.75 -37.719,-37.75 z m 0,23.6875 c 7.769,0 14.062,6.2931 14.062,14.0625 0,7.7694 -6.293,14.0625 -14.062,14.0625 -7.77,0 -14.094,-6.2931 -14.094,-14.0625 0,-7.7694 6.324,-14.0625 14.094,-14.0625 z"
     id="path4567" />
  <path
     id="path4569"
     d="m 202.66302,1509.123 c -20.8445,0 -37.75,16.9054 -37.75,37.75 0,20.8446 16.9055,37.75 37.75,37.75 20.8446,0 37.7188,-16.9054 37.7188,-37.75 0,-20.8446 -16.8742,-37.75 -37.7188,-37.75 z m 0,23.6875 c 7.7694,0 14.0626,6.2931 14.0626,14.0625 0,7.7694 -6.2932,14.0625 -14.0626,14.0625 -7.7693,0 -14.0937,-6.2931 -14.0937,-14.0625 0,-7.7694 6.3244,-14.0625 14.0937,-14.0625 z"
     style="fill:#787878;fill-opacity:1;fill-rule:nonzero;stroke:none" />
  <path
     id="path4571"
     d="m 1610.0206,1299.9678 c -102.625,-38.5352 -223.47,-65.3618 -347.124,-72.6378 -12.242,-18.5882 -23.973,-37.5863 -35.128,-56.907 -175.939,-304.73531 -206.057,-693.46981 -68.904,-772.65511 47.407,-27.3703 93.26,2.3067 119.172,46.9006 35.291,60.7339 50.518,195.6605 26.626,326.3837 l 7.066,12.1984 c 42.672,93.7479 92.006,186.8954 134.746,260.92461 42.725,74.0018 98.71,163.2881 158.538,247.0919 l 5.008,8.7007 z"
     style="fill:#c60113;fill-opacity:1;stroke:none" />
  <path
     style="fill:#2f6414;fill-opacity:1;stroke:none"
     d="m 1196.2226,387.25709 c 12.026,0.011 24.501,3.2602 37.094,10.5308 80.068,46.2272 103.09,197.9448 73.406,376.8755 l -2.062,-3.5934 c 0.141,-0.7812 0.266,-1.5623 0.406,-2.3441 -49.823,-111.3759 -77.018,-211.2575 -78.99,-293.2515 l -74.23,-73.2176 c 13.479,-9.4102 28.531,-15.014 44.376,-14.9997 z"
     id="path4573"
     sodipodi:nodetypes="cscccccc" />
  <path
     id="path4575"
     d="m 1085.4416,774.66329 c 17.94,108.1435 55.13,226.21161 110.656,336.93751 -9.977,19.8956 -20.564,39.5547 -31.719,58.875 -175.93898,304.7353 -497.53378,525.1855 -634.68678,446 -47.407,-27.3706 -44.632,-81.9183 -18.969,-126.6563 34.952,-60.9292 144.188,-141.5802 269.3438,-186.25 l 7.031,-12.2187 c 59.852,-83.8291 115.853,-173.1276 158.594,-247.1563 42.725,-74.00181 92.05698,-167.12891 134.71898,-260.84371 l 5.031,-8.6875 z"
     style="fill:#2f6414;fill-opacity:1;stroke:none" />
  <path
     sodipodi:nodetypes="cscccccc"
     id="path4577"
     d="m 501.89082,1590.3157 c -6.004,-10.4204 -9.427,-22.8485 -9.427,-37.3897 0,-92.4544 119.88,-188.2513 289.6808,-252.0091 l -2.081,3.5824 c -0.747,0.2686 -1.486,0.5508 -2.233,0.8205 -71.5428,98.836 -144.4456,172.3278 -214.4685,215.0326 l -26.2933,100.894 c -14.889,-6.9681 -27.268,-17.2017 -35.178,-30.9307 z"
     style="fill:#ffffff;fill-opacity:1;stroke:none" />
  <path
     id="path4579"
     d="m 892.78462,1492.5514 c 84.685,-69.6082 168.33998,-160.8498 236.46898,-264.2993 22.218,-1.3078 44.537,-1.9681 66.847,-1.9682 351.878,0 703.591,168.2843 703.591,326.6549 0,54.7408 -48.628,79.6122 -100.203,79.7557 -70.243,0.1959 -194.706,-54.0804 -295.97,-140.1331 l -14.097,0.02 c -102.524,-9.9189 -207.859,-13.7682 -293.341,-13.7689 -85.45,10e-5 -190.766,3.8414 -293.25698,13.752 l -10.039,-0.013 z"
     style="fill:#ffffff;fill-opacity:1;stroke:none" />
  <path
     style="fill:#c60113;fill-opacity:1;stroke:none"
     d="m 1890.1346,1589.6099 c -6.022,10.4098 -15.074,19.5882 -27.667,26.8588 -80.068,46.2272 -222.97,-9.6934 -363.087,-124.8663 l 4.143,0.011 c 0.606,0.5126 1.22,1.0115 1.827,1.5235 121.366,12.5399 221.463,38.9297 293.458,78.2189 l 100.524,-27.6763 c 1.41,16.3783 -1.263,32.2156 -9.198,45.9304 z"
     id="path4581"
     sodipodi:nodetypes="cscccccc" />
  <path
     style="fill:url(#linearGradient4591);fill-opacity:1;stroke:none"
     d="m 892.78462,1492.5514 c 84.685,-69.6082 168.33998,-160.8498 236.46898,-264.2993 22.218,-1.3078 44.537,-1.9681 66.847,-1.9682 351.878,0 703.591,168.2843 703.591,326.6549 0,54.7408 -48.628,79.6122 -100.203,79.7557 -70.243,0.1959 -194.706,-54.0804 -295.97,-140.1331 l -14.097,0.02 c -102.524,-9.9189 -207.859,-13.7682 -293.341,-13.7689 -85.45,10e-5 -190.766,3.8414 -293.25698,13.752 l -10.039,-0.013 z"
     id="path4583" />
  <path
     id="path4585"
     d="m 1610.0206,1299.9686 c -102.624,-38.5351 -223.469,-65.3617 -347.123,-72.6384 -12.243,-18.5876 -23.973,-37.586 -35.129,-56.9071 -175.938,-304.73521 -206.057,-693.46991 -68.904,-772.65521 47.408,-27.3703 93.26,2.3069 119.172,46.9005 35.292,60.7343 50.518,195.6605 26.626,326.384 l 7.067,12.1986 c 42.671,93.7477 92.005,186.895 134.746,260.92511 42.724,74.0017 98.709,163.2875 158.538,247.092 l 5.007,8.7005 z"
     style="fill:url(#linearGradient4593);fill-opacity:1;stroke:none" />
  <path
     id="path4587"
     d="m 1085.4426,774.66259 c 17.94,108.1434 55.13,226.21161 110.655,336.93781 -9.976,19.8952 -20.564,39.5542 -31.719,58.8753 -175.93898,304.7353 -497.53438,525.1855 -634.68728,446.0002 -47.406,-27.3704 -44.632,-81.9192 -18.968,-126.6562 34.951,-60.9301 144.1879,-141.5801 269.3433,-186.251 l 7.032,-12.2183 c 59.852,-83.829 115.853,-173.1271 158.594,-247.1563 42.725,-74.00201 92.05598,-167.12891 134.71898,-260.84401 l 5.031,-8.6876 z"
     style="fill:url(#linearGradient4595);fill-opacity:1;stroke:none" />
  <path
     style="font-size:medium;font-style:normal;font-variant:normal;font-weight:normal;font-stretch:normal;text-indent:0;text-align:start;text-decoration:none;line-height:normal;letter-spacing:normal;word-spacing:normal;text-transform:none;direction:ltr;block-progression:tb;writing-mode:lr-tb;text-anchor:start;color:#000000;fill:#787878;fill-opacity:1;stroke:none;stroke-width:30;marker:none;visibility:visible;display:inline;overflow:visible;enable-background:accumulate;font-family:Bitstream Vera Sans;-inkscape-font-specification:Bitstream Vera Sans"
     d="m 1195.8706,372.43549 c -0.864,0 -1.726,0.034 -2.594,0.062 -13.879,0.4627 -28.164,4.3285 -41.938,12.2813 -39.097,22.5725 -64.516,65.7787 -78.844,120.4687 -14.326,54.6901 -17.859,121.7228 -11.562,195.5625 1.925,22.5676 4.771,45.7646 8.531,69.4375 -42.986,95.4169 -93.32898,191.1768 -136.78098,266.43751 -43.685,75.6655 -101.839,167.7179 -163.344,253.0313 -22.02,8.4681 -43.2063,17.4646 -63.406,26.9374 -67.096,31.4656 -123.3637,68.0279 -163.5625,107.7813 -40.1992,39.7534 -64.9063,83.3549 -64.9063,128.5 0,20.3521 6.2455,38.0519 16.4688,52.2187 l 0.4688,-0.2812 c 7.0073,9.5016 16.2243,17.9209 27.7812,24.5938 39.0971,22.5722 89.2232,22.9679 143.75,8.0312 54.5272,-14.9367 114.328,-45.3758 175.125,-87.75 18.107,-12.6199 36.32,-26.3115 54.469,-40.9688 104.57798,-10.59 213.24798,-14.9374 300.56198,-14.9374 87.302,0 195.999,4.3511 300.563,14.9374 18.142,14.6535 36.336,28.3528 54.437,40.9688 60.798,42.3742 120.568,72.8133 175.094,87.75 54.528,14.9367 104.684,14.5408 143.781,-8.0312 11.557,-6.6729 20.774,-15.0922 27.781,-24.5938 l 0.469,0.2812 c 10.223,-14.1667 16.469,-31.8666 16.469,-52.2187 0,-45.1451 -24.707,-88.7466 -64.906,-128.5 -40.199,-39.7534 -96.467,-76.3157 -163.563,-107.7813 -20.192,-9.4693 -41.361,-18.4718 -63.375,-26.9374 -61.516,-85.3294 -119.682,-177.3527 -163.375,-253.0313 -43.466,-75.28471 -93.787,-171.08441 -136.781,-266.53121 3.748,-23.6319 6.579,-46.8131 8.5,-69.3438 6.299,-73.8397 2.797,-140.8724 -11.531,-195.5625 -14.328,-54.69 -39.746,-97.8962 -78.844,-120.4687 -13.774,-7.9528 -28.059,-11.8186 -41.937,-12.2813 -0.943,-0.031 -1.876,-0.062 -2.813,-0.062 -0.06,10e-5 -0.127,-2e-4 -0.187,0 z m 0.187,29.5938 c 9.39,-0.03 19.178,2.6456 29.75,8.75 29.48,17.0202 51.715,52.1 64.813,102.0937 13.095,49.9938 16.772,114.0381 10.687,185.375 -0.527,6.1809 -1.14,12.4342 -1.813,18.7188 -38.12,-90.6968 -67.063,-177.5025 -74.25,-242.0313 -18.916,45.6001 -1.825,130.2012 17.376,182.375 49.505,134.5363 127.532,284.6627 190.874,394.37501 38.203,66.1676 86.461,144.2975 138.876,220.0625 -91.705,-30.1542 -194.818,-50.9857 -300.344,-57.9062 -10.863,-16.6759 -21.32,-33.6538 -31.282,-50.9063 -86.772,-150.2971 -137.737,-322.01361 -149.906,-464.68751 -6.085,-71.3369 -2.409,-135.3812 10.688,-185.375 13.098,-49.9937 35.332,-85.0735 64.812,-102.0937 10.561,-6.0976 20.34,-8.774 29.719,-8.75 z m -116.906,420.75 c 19.804,94.4121 53.354,194.00581 100.125,288.71871 -8.842,17.3633 -18.121,34.5432 -27.875,51.4375 -86.774,150.2971 -210.02498,280.3117 -327.49998,362.1875 -58.737,40.9379 -116.0307,69.7834 -165.8752,83.4375 -49.8447,13.6541 -91.3637,11.9262 -120.8438,-5.0937 -7.0386,-4.0642 -12.5521,-8.5901 -16.8438,-13.5626 l -18.7187,10.7813 18.1875,-10.5 c -7.8816,-9.3589 -12.3438,-21.2339 -12.3438,-37.25 0,-34.0404 19.2531,-70.8478 56,-107.1875 36.7472,-36.3397 90.3971,-71.5385 155.2188,-101.9375 5.2489,-2.4616 10.6058,-4.881 16,-7.2813 -59.1283,77.7457 -119.4104,145.595 -171.375,183.8438 48.9499,-6.4162 113.6971,-63.505 149.2812,-106.2188 91.7588,-110.1422 182.7518,-252.7562 246.0938,-362.4687 37.984,-65.79051 81.23998,-146.12981 120.46898,-228.90621 z m 116.906,321.40621 c 6.048,11.3417 12.284,22.6045 18.719,33.75 6.629,11.4817 13.476,22.8389 20.5,34.0625 -13.052,-0.4474 -26.143,-0.6875 -39.219,-0.6875 -13.063,0 -26.117,0.2418 -39.156,0.6875 7.014,-11.2287 13.84,-22.5816 20.469,-34.0625 6.432,-11.1436 12.643,-22.4089 18.687,-33.75 z m 0,97.125 c 173.549,0 347.762,41.7019 477.406,102.5 64.822,30.399 118.472,65.5978 155.219,101.9375 36.748,36.3397 56,73.1471 56,107.1875 0,16.0159 -4.463,27.8909 -12.344,37.25 l -0.5,-0.2813 c -4.294,4.9783 -9.83,9.4945 -16.875,13.5626 -29.48,17.0199 -71,18.7478 -120.843,5.0937 -49.845,-13.6541 -107.17,-42.4996 -165.907,-83.4375 -4.561,-3.1789 -9.114,-6.4571 -13.687,-9.7812 96.999,12.331 185.996,30.6298 245.156,56.5312 -30.031,-39.1838 -111.841,-66.6964 -166.625,-76.1562 -141.265,-24.3942 -310.284,-31.875 -436.969,-31.875 -76.333,0 -168.038,2.7487 -259.78098,10.25 72.04398,-64.3211 141.74698,-143.2196 200.59398,-231.1876 19.684,-1.0454 39.421,-1.5937 59.156,-1.5937 z"
     id="path4589" />
</svg>
